Book One: Air (2012)
--------------------
3 3 "The Revelation" Joaquim Dos Santos & Ki Hyun Ryu[8] Michael Dante DiMartino & Bryan Konietzko April 21, 2012 (2012-04-21) 103 N/A 
h**p://www.imdb.com/title/tt1695360/
-=-=-=-=-=-=-=-=-=-=-=-=-=-=-
File info
---------
Format                           : MPEG-4
Format profile                   : Base Media
Codec ID                         : isom
File size                        : 700 MiB
Duration                         : 25mn 14s
Overall bit rate                 : 3 876 Kbps
Encoded date                     : UTC 2012-04-22 00:20:42
Tagged date                      : UTC 2012-04-22 00:20:42

Video
ID                               : 1
Format                           : AVC
Format/Info                      : Advanced Video Codec
Format profile                   : High@L3.1
Format settings, CABAC           : Yes
Format settings, ReFrames        : 4 frames
Codec ID                         : avc1
Codec ID/Info                    : Advanced Video Coding
Duration                         : 25mn 14s
Bit rate mode                    : Variable
Bit rate                         : 3 747 Kbps
Maximum bit rate                 : 15.8 Mbps
Width                            : 1 280 pixels
Height                           : 720 pixels
Display aspect ratio             : 16:9
Frame rate mode                  : Constant
Frame rate                       : 23.976 fps
Color space                      : YUV
Chroma subsampling               : 4:2:0
Bit depth                        : 8 bits
Scan type                        : Progressive
Bits/(Pixel*Frame)               : 0.170
Stream size                      : 676 MiB (97%)
Writing library                  : x264 core 120 r2164 da19765
Encoding settings                : cabac=1 / ref=3 / deblock=1:0:0 / analyse=0x3:0x111 / me=hex / subme=7 / psy=1 / psy_rd=1.00:0.00 / mixed_ref=1 / me_range=16 / chroma_me=1 / trellis=1 / 8x8dct=1 / cqm=0 / deadzone=21,11 / fast_pskip=1 / chroma_qp_offset=-2 / threads=4 / sliced_threads=0 / nr=0 / decimate=1 / interlaced=0 / bluray_compat=0 / constrained_intra=0 / bframes=3 / b_pyramid=2 / b_adapt=1 / b_bias=0 / direct=1 / weightb=1 / open_gop=0 / weightp=2 / keyint=240 / keyint_min=23 / scenecut=40 / intra_refresh=0 / rc_lookahead=40 / rc=2pass / mbtree=1 / bitrate=3747 / ratetol=1.0 / qcomp=0.60 / qpmin=0 / qpmax=69 / qpstep=4 / cplxblur=20.0 / qblur=0.5 / ip_ratio=1.40 / aq=1:1.00
Encoded date                     : UTC 2012-04-22 00:20:42
Tagged date                      : UTC 2012-04-22 00:27:10

Audio
ID                               : 2
Format                           : AC-3
Format/Info                      : Audio Coding 3
Mode extension                   : CM (complete main)
Codec ID                         : ac-3
Duration                         : 25mn 14s
Bit rate mode                    : Constant
Bit rate                         : 128 Kbps
Channel(s)                       : 2 channels
Channel positions                : Front: L R
Sampling rate                    : 48.0 KHz
Bit depth                        : 16 bits
Compression mode                 : Lossy
Stream size                      : 23.1 MiB (3%)
Encoded date                     : UTC 2012-04-22 00:27:02
Tagged date                      : UTC 2012-04-22 00:27:10
